<svg width="30" height="30" viewBox="0 0 30 30" fill="none" xmlns="http://www.w3.org/2000/svg">
<path d="M5.12715 25.0791L9.08246 23.7609L9.78559 24.0834C11.3875 24.9041 13.1259 25.3144 15.0009 25.3144C18.1846 25.2169 20.8359 24.1769 22.9546 22.1944C25.0734 20.2119 26.1721 17.8144 26.2509 15.0019C26.1728 12.1894 25.074 9.79188 22.9546 7.80938C20.8353 5.82688 18.184 4.78687 15.0009 4.68937C11.8171 4.78687 9.1659 5.82688 7.04715 7.80938C4.9284 9.79188 3.82965 12.1894 3.7509 15.0019C3.7509 16.0175 3.92684 17.0234 4.27871 18.0197C4.63059 19.0159 5.14809 19.9534 5.83121 20.8322L6.47621 21.6816L5.12715 25.0791ZM3.77902 27.4819C3.40777 27.5994 3.09027 27.5163 2.82652 27.2325C2.56277 26.9488 2.49934 26.6216 2.63621 26.2509L4.3359 21.9731C3.55465 20.9381 2.94902 19.8297 2.51902 18.6478C2.08902 17.4659 1.87402 16.25 1.87402 15C1.95215 11.7775 3.20215 8.97 5.62402 6.5775C8.0459 4.185 11.1709 2.93 14.999 2.8125C18.8271 2.93 21.9521 4.185 24.374 6.5775C26.7959 8.97 28.0459 11.7775 28.124 15C28.0459 18.2225 26.7959 21.03 24.374 23.4225C21.9521 25.815 18.8271 27.07 14.999 27.1875C12.8703 27.1875 10.8487 26.7188 8.93434 25.7813L3.77902 27.4819ZM15 16.4953C14.7262 16.4953 14.4771 16.4319 14.2528 16.305C14.0284 16.1781 13.8478 15.9925 13.7109 15.7481C13.574 15.5038 13.5056 15.2547 13.5056 15.0009C13.5056 14.7472 13.574 14.4981 13.7109 14.2538C13.8478 14.0094 14.0284 13.8238 14.2528 13.6969C14.4771 13.57 14.7262 13.5066 15 13.5066C15.43 13.5066 15.7865 13.6481 16.0696 13.9313C16.3528 14.2144 16.4943 14.5709 16.4943 15.0009C16.4943 15.4309 16.3528 15.7875 16.0696 16.0706C15.7865 16.3538 15.43 16.4953 15 16.4953V16.4953ZM20.625 16.4953C20.3512 16.4953 20.1021 16.4319 19.8778 16.305C19.6534 16.1781 19.4728 15.9925 19.3359 15.7481C19.199 15.5038 19.1306 15.2547 19.1306 15.0009C19.1306 14.7472 19.199 14.4981 19.3359 14.2538C19.4728 14.0094 19.6534 13.8238 19.8778 13.6969C20.1021 13.57 20.3512 13.5066 20.625 13.5066C21.055 13.5066 21.4115 13.6481 21.6946 13.9313C21.9778 14.2144 22.1193 14.5709 22.1193 15.0009C22.1193 15.4309 21.9778 15.7875 21.6946 16.0706C21.4115 16.3538 21.055 16.4953 20.625 16.4953V16.4953ZM9.37496 16.4953C9.10121 16.4953 8.85215 16.4319 8.62777 16.305C8.4034 16.1781 8.22277 15.9925 8.0859 15.7481C7.94902 15.5038 7.88059 15.2547 7.88059 15.0009C7.88059 14.7472 7.94902 14.4981 8.0859 14.2538C8.22277 14.0094 8.4034 13.8238 8.62777 13.6969C8.85215 13.57 9.10121 13.5066 9.37496 13.5066C9.80496 13.5066 10.1615 13.6481 10.4446 13.9313C10.7278 14.2144 10.8693 14.5709 10.8693 15.0009C10.8693 15.4309 10.7278 15.7875 10.4446 16.0706C10.1615 16.3538 9.80496 16.4953 9.37496 16.4953V16.4953Z" fill="white" fill-opacity="0.96"/>
</svg>
