<svg width="100" height="100" viewBox="0 0 100 100" fill="none" xmlns="http://www.w3.org/2000/svg">
<path d="M17.2222 2L20.9999 5.77778L17.2222 9.55556" stroke="#222222" stroke-width="2" stroke-linecap="round" stroke-linejoin="round"/>
<path d="M4 11.444V9.55512C4 8.55319 4.39801 7.5923 5.10649 6.88383C5.81496 6.17536 6.77585 5.77734 7.77778 5.77734H21" stroke="#222222" stroke-width="2" stroke-linecap="round" stroke-linejoin="round"/>
<path d="M7.77778 22.7777L4 18.9999L7.77778 15.2222" stroke="#222222" stroke-width="2" stroke-linecap="round" stroke-linejoin="round"/>
<path d="M21 13.333V15.2219C21 16.2238 20.602 17.1847 19.8935 17.8932C19.185 18.6017 18.2242 18.9997 17.2222 18.9997H4" stroke="#222222" stroke-width="2" stroke-linecap="round" stroke-linejoin="round"/>
<path d="M42 20L32 12L42 4L42 20Z" fill="#222222" stroke="#222222" stroke-width="2" stroke-linecap="round" stroke-linejoin="round"/>
<path d="M28 19L28 5" stroke="#222222" stroke-width="2" stroke-linecap="round" stroke-linejoin="round"/>
<path d="M75 20.15L77.347 14.45M88.3 20.15L85.953 14.45M85.953 14.45L84.975 12.075L81.65 4L78.325 12.075L77.347 14.45M85.953 14.45H77.3465M86.4 4.95H94M88.3 9.7H94M90.2 14.45H94M92.1 19.2H94" stroke="#222222" stroke-width="2" stroke-linecap="round" stroke-linejoin="round"/>
<path d="M17.2222 26L20.9999 29.7778L17.2222 33.5556" stroke="#222222" stroke-width="2" stroke-linecap="round" stroke-linejoin="round"/>
<path d="M4 35.444V33.5551C4 32.5532 4.39801 31.5923 5.10649 30.8838C5.81496 30.1754 6.77585 29.7773 7.77778 29.7773H21" stroke="#222222" stroke-width="2" stroke-linecap="round" stroke-linejoin="round"/>
<path d="M7.77778 46.7777L4 42.9999L7.77778 39.2222" stroke="#222222" stroke-width="2" stroke-linecap="round" stroke-linejoin="round"/>
<path d="M21 37.333V39.2219C21 40.2238 20.602 41.1847 19.8935 41.8932C19.185 42.6017 18.2242 42.9997 17.2222 42.9997H4" stroke="#222222" stroke-width="2" stroke-linecap="round" stroke-linejoin="round"/>
<path d="M12.264 40.3887V33.8127L11.016 34.0287V32.9367L13.56 32.5407V40.3887H12.264Z" fill="black"/>
<path d="M18 68L21 65L18 62" stroke="#222222" stroke-width="2" stroke-linecap="round" stroke-linejoin="round"/>
<path d="M18 52L21 55L18 58" stroke="#222222" stroke-width="2" stroke-linecap="round" stroke-linejoin="round"/>
<path d="M21 55H17C15.8744 55 14.8357 55.3719 14 55.9996M3 65H7C8.12561 65 9.16434 64.6281 10 64.0004" stroke="#222222" stroke-width="2" stroke-linecap="round" stroke-linejoin="round"/>
<path d="M3 55H7C9.76142 55 12 57.2386 12 60C12 62.7614 14.2386 65 17 65H21" stroke="#222222" stroke-width="2" stroke-linecap="round" stroke-linejoin="round"/>
<path d="M53 4L63 12L53 20V4Z" fill="#222222" stroke="#222222" stroke-width="2" stroke-linecap="round" stroke-linejoin="round"/>
<path d="M67 5V19" stroke="#222222" stroke-width="2" stroke-linecap="round" stroke-linejoin="round"/>
</svg>
